<svg width="50" height="50" viewBox="0 0 50 50" fill="none" xmlns="http://www.w3.org/2000/svg">
<rect width="50" height="50" fill="black"/>
<path d="M25 21.5C27.4162 21.5 29.375 19.5412 29.375 17.125C29.375 14.7088 27.4162 12.75 25 12.75C22.5838 12.75 20.625 14.7088 20.625 17.125C20.625 19.5412 22.5838 21.5 25 21.5Z" stroke="white" stroke-width="2" stroke-linecap="round" stroke-linejoin="round"/>
<path d="M13.75 34.5V35.25H36.25V34.5C36.25 31.6997 36.25 30.2996 35.7051 29.2301C35.2257 28.2892 34.4608 27.5243 33.5199 27.0449C32.4504 26.5 31.0503 26.5 28.25 26.5H21.75C18.9497 26.5 17.5496 26.5 16.4801 27.0449C15.5392 27.5243 14.7743 28.2892 14.295 29.2301C13.75 30.2996 13.75 31.6997 13.75 34.5Z" stroke="white" stroke-width="2" stroke-linecap="round"/>
</svg>
