<svg width="18" height="18" viewBox="0 0 18 18" fill="none" xmlns="http://www.w3.org/2000/svg">
<path d="M7.8681 4.51578C8.23094 4.42507 8.60955 4.3738 9 4.3738C11.5517 4.3738 13.6223 6.44435 13.6223 8.99606C13.6223 9.3865 13.5749 9.76512 13.4803 10.128L11.9777 8.62533C11.8081 7.26468 10.7314 6.18799 9.37467 6.02235L7.8681 4.51578ZM8.62927 11.9698C7.26862 11.8002 6.19194 10.7235 6.02629 9.36678L4.52366 7.86415C4.43295 8.22699 4.38168 8.60561 4.38168 8.99606C4.38168 11.5478 6.45224 13.6183 9.00394 13.6183C9.39439 13.6183 9.77301 13.571 10.1358 13.4763L8.62927 11.9698ZM14.2257 14.2217C14.3874 14.06 14.4584 13.9457 14.5451 13.7327C14.5649 13.6854 14.5925 13.6104 14.6201 13.5039L4.49606 3.37599C4.38563 3.40754 4.31464 3.43514 4.26731 3.45092C4.05039 3.53374 3.93602 3.60868 3.77826 3.77038C3.61656 3.93208 3.54557 4.04645 3.45881 4.25942C3.43909 4.30675 3.41148 4.38168 3.38387 4.48817L13.5079 14.6122C13.6183 14.5806 13.6893 14.553 13.7366 14.5372C13.9496 14.4544 14.064 14.3795 14.2257 14.2217ZM9 1.62095C6.59816 1.62095 6.3142 1.62883 5.36372 1.67222C4.48817 1.71166 4.01096 1.85758 3.6915 1.98379C3.27344 2.14549 2.97371 2.34268 2.65819 2.65819C2.34268 2.97371 2.14943 3.27344 1.98379 3.6915C1.86153 4.00701 1.7156 4.48422 1.67222 5.36372C1.63278 6.31025 1.62489 6.59422 1.62489 8.99606C1.62489 11.3979 1.63278 11.6819 1.67616 12.6323C1.7156 13.5079 1.86152 13.9851 1.98773 14.3046C2.14943 14.7226 2.34663 15.0223 2.66214 15.3379C2.97765 15.6534 3.27739 15.8466 3.69544 16.0123C4.01096 16.1345 4.48817 16.2805 5.36766 16.3238C6.31814 16.3672 6.6021 16.3751 9.00394 16.3751C11.4058 16.3751 11.6897 16.3672 12.6402 16.3238C13.5158 16.2844 13.993 16.1385 14.3124 16.0123C14.7305 15.8506 15.0302 15.6534 15.3457 15.3379C15.6613 15.0223 15.8545 14.7226 16.0202 14.3046C16.1424 13.989 16.2883 13.5118 16.3317 12.6323C16.3751 11.6819 16.383 11.3979 16.383 8.99606C16.383 6.59422 16.3751 6.31025 16.3317 5.35977C16.2923 4.48422 16.1464 4.00701 16.0202 3.68755C15.8585 3.2695 15.6613 2.96976 15.3457 2.65425C15.0302 2.33874 14.7305 2.14549 14.3124 1.97984C13.9969 1.85758 13.5197 1.71166 12.6402 1.66827C11.6858 1.62883 11.4018 1.62095 9 1.62095ZM9 0C11.4452 0 11.7489 0.0118317 12.7112 0.0552147C13.6696 0.0985977 14.3243 0.25241 14.8961 0.473269C15.4877 0.702016 15.9886 1.00964 16.4895 1.51052C16.9904 2.01139 17.298 2.51227 17.5267 3.10386C17.7476 3.67572 17.9014 4.33041 17.9448 5.28878C17.9882 6.24715 18 6.55478 18 9C18 11.4452 17.9882 11.7489 17.9448 12.7112C17.9014 13.6696 17.7476 14.3243 17.5267 14.8961C17.298 15.4877 16.9904 15.9886 16.4895 16.4895C15.9886 16.9904 15.4877 17.298 14.8961 17.5267C14.3243 17.7476 13.6696 17.9014 12.7112 17.9448C11.7528 17.9882 11.4452 18 9 18C6.55478 18 6.2511 17.9882 5.28878 17.9448C4.33041 17.9014 3.67572 17.7476 3.10386 17.5267C2.51227 17.298 2.01139 16.9904 1.51052 16.4895C1.00964 15.9886 0.702016 15.4877 0.473269 14.8961C0.25241 14.3243 0.0985978 13.6696 0.0552148 12.7112C0.0118318 11.7528 0 11.4452 0 9C0 6.55478 0.0118318 6.2511 0.0552148 5.28878C0.0985978 4.33041 0.25241 3.67572 0.473269 3.10386C0.702016 2.51227 1.00964 2.01139 1.51052 1.51052C2.01139 1.00964 2.51227 0.702016 3.10386 0.473269C3.67572 0.25241 4.33041 0.0985977 5.28878 0.0552147C6.2511 0.0078878 6.55478 0 9 0ZM14.8843 4.19238C14.8843 3.59684 14.3992 3.11174 13.8037 3.11174C13.2082 3.11174 12.7231 3.59684 12.7231 4.19238C12.7231 4.78791 13.2082 5.27301 13.8037 5.27301C14.3992 5.27301 14.8843 4.78791 14.8843 4.19238Z" fill="white"/>
</svg>
