<svg width="18" height="18" viewBox="0 0 18 18" fill="none" xmlns="http://www.w3.org/2000/svg">
<path fill-rule="evenodd" clip-rule="evenodd" d="M9 0C4.0302 0 0 4.0302 0 9C0 13.9698 4.0302 18 9 18C13.9698 18 18 13.9698 18 9C18 4.0302 13.9698 0 9 0ZM13.1724 6.12C13.0374 7.5438 12.4506 10.9962 12.1536 12.591C12.0276 13.266 11.7792 13.491 11.538 13.5144C11.016 13.563 10.6182 13.1688 10.1124 12.8376C9.3204 12.3192 8.8722 11.9952 8.1036 11.4876C7.2144 10.9026 7.7904 10.5804 8.298 10.0548C8.4312 9.918 10.7334 7.8228 10.7784 7.632C10.7838 7.6086 10.7892 7.5204 10.737 7.4736C10.6848 7.4268 10.6074 7.443 10.5498 7.4556C10.4706 7.4736 9.2052 8.3106 6.7536 9.9648C6.3936 10.2114 6.0696 10.332 5.778 10.3248C5.4558 10.3176 4.8384 10.143 4.3794 9.9936C3.816 9.81 3.3678 9.7128 3.4074 9.4032C3.4272 9.2412 3.6504 9.0756 4.077 8.9064C6.7014 7.7634 8.451 7.0092 9.3258 6.6456C11.826 5.6052 12.3444 5.4252 12.6828 5.4198C12.7566 5.418 12.924 5.4378 13.032 5.5242C13.1238 5.598 13.149 5.697 13.1598 5.7672C13.1688 5.8356 13.1832 5.9958 13.1724 6.12Z" fill="white"/>
</svg>
