<svg width="18" height="18" viewBox="0 0 18 18" fill="none" xmlns="http://www.w3.org/2000/svg">
<path fill-rule="evenodd" clip-rule="evenodd" d="M1.26 1.26C0 2.52 0 4.554 0 8.64V9.36C0 13.428 0 15.462 1.26 16.74C2.52 18 4.554 18 8.64 18H9.36C13.428 18 15.462 18 16.74 16.74C18 15.48 18 13.446 18 9.36V8.64C18 4.572 18 2.538 16.74 1.26C15.48 0 13.446 0 9.36 0H8.64C4.572 0 2.538 0 1.26 1.26ZM3.042 5.472C3.132 10.152 5.472 12.96 9.576 12.96H9.81V10.296C11.322 10.44 12.456 11.556 12.906 12.978H15.03C14.454 10.836 12.924 9.666 11.97 9.216C12.924 8.658 14.274 7.308 14.598 5.49H12.654C12.24 6.966 10.998 8.316 9.81 8.46V5.472H7.866V10.656C6.66 10.35 5.148 8.91 5.076 5.472H3.042Z" fill="white"/>
</svg>
